<svg clip-rule="evenodd" fill-rule="evenodd" stroke-linejoin="round" stroke-miterlimit="2" viewBox="0 0 24 24"
     xmlns="http://www.w3.org/2000/svg">
    <g fill="#e20000">
        <path
            d="m26.39 25.81v-5.503c0-.349.283-.633.632-.633h1.735c.349 0 .633.284.633.633v5.503h5.481c.35 0 .633.283.633.632v1.735c0 .349-.283.633-.633.633h-5.481v5.532c0 .168-.067.329-.186.448-.118.118-.279.185-.447.185h-1.735c-.167 0-.328-.067-.447-.185-.119-.119-.185-.28-.185-.448v-5.532h-5.64c-.168 0-.329-.067-.448-.186-.118-.118-.185-.279-.185-.447v-1.735c0-.167.067-.328.185-.447.119-.119.28-.185.448-.185z"
            transform="matrix(.637022 0 0 .637022 .6232 -2.04218)"/>
        <path
            d="m14.354 19.989c-1.893 1.609-1.887 1.604-1.887 1.604-.27.229-.664.229-.934 0 0 0-.066-.138-8.508-7.233-3.604-3.029-2.39-8.116-.003-10.145 2.205-1.874 6.446-2.063 8.978 1.091 2.532-3.154 6.773-2.965 8.978-1.091 1.479 1.258 2.502 3.682 2.213 6.068-.398-.506-.867-.954-1.393-1.328-.125-1.477-.824-2.853-1.752-3.642-1.859-1.581-5.567-1.535-7.425 1.625-.13.22-.366.355-.621.355s-.491-.135-.621-.355c-1.858-3.16-5.566-3.206-7.425-1.625-1.869 1.589-2.825 5.572-.003 7.945 5.245 4.408 7.275 6.147 8.061 6.832l1.204-1.024c.344.347.725.657 1.138.923zm-2.209 1.056c-.044 0-.09 0-.135-.005l-.01.005z"/>
    </g>
</svg>
