<svg clip-rule="evenodd" fill-rule="evenodd" stroke-linejoin="round" stroke-miterlimit="2" viewBox="0 0 50 50" xmlns="http://www.w3.org/2000/svg"><path d="m0 0h50v50h-50z" fill="none"/><g fill="#e20000"><path d="m30.314 41.294c-4.355 3.702-4.342 3.692-4.342 3.692-.561.477-1.383.477-1.944 0 0 0-.138-.288-17.726-15.069-7.508-6.31-4.979-16.908-.007-21.135 4.594-3.905 13.43-4.298 18.705 2.273 5.275-6.571 14.111-6.178 18.705-2.273 4.537 3.857 7.015 12.985 1.734 19.376-.526-.89-1.184-1.694-1.946-2.384 3.643-4.977 1.712-11.778-1.731-14.706-3.873-3.292-11.597-3.197-15.469 3.386-.27.459-.761.74-1.293.74s-1.023-.281-1.293-.74c-3.872-6.583-11.596-6.678-15.469-3.386-3.894 3.311-5.886 11.61-.006 16.552 10.927 9.184 15.156 12.807 16.793 14.234l3.241-2.756c.572.829 1.263 1.569 2.048 2.196zm-5.293 2.539-.021.01h1.345c-.205 0-.589 0-1.042 0-.093 0-.188 0-.282-.01z"/><path d="m26.39 25.81v-5.503c0-.349.283-.633.632-.633h1.735c.349 0 .633.284.633.633v5.503h5.481c.35 0 .633.283.633.632v1.735c0 .349-.283.633-.633.633-1.563 0-5.481 0-5.481 0v5.532c0 .168-.067.329-.186.448-.118.118-.279.185-.447.185-.51 0-1.224 0-1.735 0-.167 0-.328-.067-.447-.185-.119-.119-.185-.28-.185-.448 0-1.572 0-5.532 0-5.532h-5.64c-.168 0-.329-.067-.448-.186-.118-.118-.185-.279-.185-.447 0-.51 0-1.224 0-1.735 0-.167.067-.328.185-.447.119-.119.28-.185.448-.185z" transform="matrix(1.32713 0 0 1.32713 -.353073 -2.91648)"/></g></svg>